<?xml version="1.0" encoding="utf-8"?>
<!-- Generator: Adobe Illustrator 27.5.0, SVG Export Plug-In . SVG Version: 6.00 Build 0)  -->
<svg version="1.1" xmlns="http://www.w3.org/2000/svg" xmlns:xlink="http://www.w3.org/1999/xlink" x="0px" y="0px"
	 viewBox="0 0 500 500" style="enable-background:new 0 0 500 500;" xml:space="preserve">
<g id="BACKGROUND">
	<rect style="fill:#F9FBFC;" width="500" height="500"/>
</g>
<g id="OBJECTS">
	<rect x="116.722" y="24.71" style="fill:none;" width="266.555" height="23.534"/>
	<text transform="matrix(1 0 0 1 186.8247 36.1021)" style="fill:#3C1F4E; font-family:'SourceSansPro-Regular'; font-size:16px;">Office building</text>
	<rect x="195.142" y="42.076" style="fill:none;" width="109.716" height="23.533"/>
	
		<text transform="matrix(1 0 0 1 213.0347 49.9849)" style="fill:#ACB7C6; font-family:'SourceSansPro-Light'; font-size:11px; letter-spacing:1;">Collection</text>
	<g>
		<rect x="367.362" y="59.026" style="fill:#233C45;" width="6.822" height="4.067"/>
		<rect x="381.923" y="45.252" style="fill:#233C45;" width="4.518" height="4.066"/>
		<g>
			<rect x="380.713" y="47.548" style="fill:#AAAAAA;" width="9.746" height="22.241"/>
			<rect x="396.957" y="31.554" style="fill:#AAAAAA;" width="2.749" height="42.484"/>
			<rect x="363.219" y="62.042" style="fill:#AAAAAA;" width="13.745" height="9.497"/>
		</g>
		<rect x="355.972" y="66.541" style="fill:#CBCCCE;" width="50.98" height="17.243"/>
		<rect x="355.972" y="76.626" style="fill:#AAAAAA;" width="50.98" height="7.158"/>
		<rect x="348.725" y="79.786" style="fill:#CBCCCE;" width="65.475" height="27.239"/>
		<rect x="345.765" y="87.736" style="fill:#AAAAAA;" width="71.395" height="13.338"/>
		<rect x="341.365" y="90.87" style="fill:#CBCCCE;" width="80.195" height="143.82"/>
		<rect x="331.023" y="203.755" style="fill:#AAAAAA;" width="100.879" height="40.06"/>
		<rect x="331.023" y="210.623" style="fill:#233C45;" width="100.879" height="2.953"/>
		<rect x="331.023" y="205.774" style="fill:#233C45;" width="100.879" height="2.953"/>
		<rect x="321.796" y="215.827" style="fill:#233C45;" width="119.332" height="7.381"/>
		<rect x="318.98" y="222.133" style="fill:#233C45;" width="124.965" height="1.433"/>
		<g>
			<rect x="335.974" y="226.253" style="fill:#3F798F;" width="35.207" height="17.884"/>
			<rect x="405.73" y="230.479" style="fill:#3F798F;" width="21.221" height="13.745"/>
			<rect x="381.309" y="230.479" style="fill:#3F798F;" width="21.222" height="13.745"/>
			<rect x="342.803" y="234.727" style="fill:#E3E2E4;" width="4.748" height="8.497"/>
			<rect x="350.05" y="234.727" style="fill:#E3E2E4;" width="4.748" height="8.497"/>
		</g>
		<rect x="321.796" y="241.915" style="fill:#CBCCCE;" width="119.332" height="7.381"/>
		<g>
			<rect x="346.776" y="98.09" style="fill:#64AECE;" width="4.673" height="16.894"/>
			<rect x="353.965" y="98.09" style="fill:#64AECE;" width="4.673" height="16.894"/>
			<rect x="361.154" y="98.09" style="fill:#64AECE;" width="4.673" height="16.894"/>
			<rect x="368.343" y="98.09" style="fill:#64AECE;" width="4.672" height="16.894"/>
			<rect x="375.532" y="98.09" style="fill:#64AECE;" width="4.673" height="16.894"/>
			<rect x="382.721" y="98.09" style="fill:#64AECE;" width="4.672" height="16.894"/>
			<rect x="389.91" y="98.09" style="fill:#64AECE;" width="4.673" height="16.894"/>
			<rect x="397.098" y="98.09" style="fill:#64AECE;" width="4.673" height="16.894"/>
			<rect x="404.287" y="98.09" style="fill:#64AECE;" width="4.673" height="16.894"/>
			<rect x="411.476" y="98.09" style="fill:#64AECE;" width="4.673" height="16.894"/>
		</g>
		<g>
			<rect x="346.776" y="118.252" style="fill:#64AECE;" width="4.673" height="16.894"/>
			<rect x="353.965" y="118.252" style="fill:#64AECE;" width="4.673" height="16.894"/>
			<rect x="361.154" y="118.252" style="fill:#64AECE;" width="4.673" height="16.894"/>
			<rect x="368.343" y="118.252" style="fill:#64AECE;" width="4.672" height="16.894"/>
			<rect x="375.532" y="118.252" style="fill:#64AECE;" width="4.673" height="16.894"/>
			<rect x="382.721" y="118.252" style="fill:#64AECE;" width="4.672" height="16.894"/>
			<rect x="389.91" y="118.252" style="fill:#64AECE;" width="4.673" height="16.894"/>
			<rect x="397.098" y="118.252" style="fill:#64AECE;" width="4.673" height="16.894"/>
			<rect x="404.287" y="118.252" style="fill:#64AECE;" width="4.673" height="16.894"/>
			<rect x="411.476" y="118.252" style="fill:#64AECE;" width="4.673" height="16.894"/>
		</g>
		<g>
			<rect x="346.776" y="138.415" style="fill:#64AECE;" width="4.673" height="16.894"/>
			<rect x="353.965" y="138.415" style="fill:#64AECE;" width="4.673" height="16.894"/>
			<rect x="361.154" y="138.415" style="fill:#64AECE;" width="4.673" height="16.894"/>
			<rect x="368.343" y="138.415" style="fill:#64AECE;" width="4.672" height="16.894"/>
			<rect x="375.532" y="138.415" style="fill:#64AECE;" width="4.673" height="16.894"/>
			<rect x="382.721" y="138.415" style="fill:#64AECE;" width="4.672" height="16.894"/>
			<rect x="389.91" y="138.415" style="fill:#64AECE;" width="4.673" height="16.894"/>
			<rect x="397.098" y="138.415" style="fill:#64AECE;" width="4.673" height="16.894"/>
			<rect x="404.287" y="138.415" style="fill:#64AECE;" width="4.673" height="16.894"/>
			<rect x="411.476" y="138.415" style="fill:#64AECE;" width="4.673" height="16.894"/>
		</g>
		<g>
			<rect x="346.776" y="158.578" style="fill:#64AECE;" width="4.673" height="16.894"/>
			<rect x="353.965" y="158.578" style="fill:#64AECE;" width="4.673" height="16.894"/>
			<rect x="361.154" y="158.578" style="fill:#64AECE;" width="4.673" height="16.894"/>
			<rect x="368.343" y="158.578" style="fill:#64AECE;" width="4.672" height="16.894"/>
			<rect x="375.532" y="158.578" style="fill:#64AECE;" width="4.673" height="16.894"/>
			<rect x="382.721" y="158.578" style="fill:#64AECE;" width="4.672" height="16.894"/>
			<rect x="389.91" y="158.578" style="fill:#64AECE;" width="4.673" height="16.894"/>
			<rect x="397.098" y="158.578" style="fill:#64AECE;" width="4.673" height="16.894"/>
			<rect x="404.287" y="158.578" style="fill:#64AECE;" width="4.673" height="16.894"/>
			<rect x="411.476" y="158.578" style="fill:#64AECE;" width="4.673" height="16.894"/>
		</g>
		<g>
			<rect x="346.776" y="178.74" style="fill:#64AECE;" width="4.673" height="16.894"/>
			<rect x="353.965" y="178.74" style="fill:#64AECE;" width="4.673" height="16.894"/>
			<rect x="361.154" y="178.74" style="fill:#64AECE;" width="4.673" height="16.894"/>
			<rect x="368.343" y="178.74" style="fill:#64AECE;" width="4.672" height="16.894"/>
			<rect x="375.532" y="178.74" style="fill:#64AECE;" width="4.673" height="16.894"/>
			<rect x="382.721" y="178.74" style="fill:#64AECE;" width="4.672" height="16.894"/>
			<rect x="389.91" y="178.74" style="fill:#64AECE;" width="4.673" height="16.894"/>
			<rect x="397.098" y="178.74" style="fill:#64AECE;" width="4.673" height="16.894"/>
			<rect x="404.287" y="178.74" style="fill:#64AECE;" width="4.673" height="16.894"/>
			<rect x="411.476" y="178.74" style="fill:#64AECE;" width="4.673" height="16.894"/>
		</g>
		<g>
			<rect x="360.936" y="69.945" style="fill:#64AECE;" width="5.961" height="3.937"/>
			<rect x="369.71" y="69.945" style="fill:#64AECE;" width="5.961" height="3.937"/>
			<rect x="378.482" y="69.945" style="fill:#64AECE;" width="5.961" height="3.937"/>
			<rect x="387.255" y="69.945" style="fill:#64AECE;" width="5.961" height="3.937"/>
			<rect x="396.028" y="69.945" style="fill:#64AECE;" width="5.961" height="3.937"/>
		</g>
		<rect x="315.149" y="244.564" style="fill:#AAAAAA;" width="132.627" height="5.799"/>
	</g>
	<g>
		<rect x="211.456" y="235.693" style="fill:#AD634D;" width="0.933" height="6.996"/>
		<path style="fill:#77B257;" d="M214.977,234.019c0,1.687-1.368,3.055-3.055,3.055c-1.688,0-3.055-1.368-3.055-3.055
			c0-1.687,1.367-3.054,3.055-3.054C213.609,230.964,214.977,232.331,214.977,234.019z"/>
		<rect x="220.34" y="238.855" style="fill:#AD634D;" width="0.933" height="6.996"/>
		<path style="fill:#5CA17A;" d="M223.861,237.181c0,1.687-1.367,3.055-3.055,3.055c-1.687,0-3.054-1.368-3.054-3.055
			c0-1.687,1.368-3.054,3.054-3.054C222.494,234.126,223.861,235.494,223.861,237.181z"/>
		<g>
			<rect x="125.535" y="28.554" style="fill:#46849B;" width="1.77" height="45.668"/>
			<rect x="111.082" y="64.632" style="fill:#46849B;" width="30.675" height="18.119"/>
			<rect x="103.232" y="72.807" style="fill:#66B2C9;" width="46.376" height="20.887"/>
			<g>
				<rect x="88.044" y="82.557" style="fill:#315A6A;" width="76.751" height="161.241"/>
				<rect x="92.518" y="88.169" style="fill:#46849B;" width="67.804" height="150.016"/>
				<g>
					<rect x="95.571" y="91.501" style="fill:#66B2C9;" width="3.64" height="28.635"/>
					<rect x="100.849" y="91.501" style="fill:#66B2C9;" width="3.64" height="28.635"/>
					<rect x="106.127" y="91.501" style="fill:#66B2C9;" width="3.641" height="28.635"/>
					<rect x="111.405" y="91.501" style="fill:#66B2C9;" width="3.64" height="28.635"/>
					<rect x="116.683" y="91.501" style="fill:#66B2C9;" width="3.64" height="28.635"/>
					<rect x="121.961" y="91.501" style="fill:#66B2C9;" width="3.64" height="28.635"/>
					<rect x="127.239" y="91.501" style="fill:#66B2C9;" width="3.641" height="28.635"/>
					<rect x="132.517" y="91.501" style="fill:#66B2C9;" width="3.64" height="28.635"/>
					<rect x="137.795" y="91.501" style="fill:#66B2C9;" width="3.64" height="28.635"/>
					<rect x="143.073" y="91.501" style="fill:#66B2C9;" width="3.64" height="28.635"/>
					<rect x="148.351" y="91.501" style="fill:#66B2C9;" width="3.64" height="28.635"/>
					<rect x="153.629" y="91.501" style="fill:#66B2C9;" width="3.64" height="28.635"/>
				</g>
				<g>
					<rect x="95.571" y="122.518" style="fill:#66B2C9;" width="3.64" height="104.205"/>
					<rect x="100.849" y="122.518" style="fill:#66B2C9;" width="3.64" height="104.205"/>
					<rect x="106.127" y="122.518" style="fill:#66B2C9;" width="3.641" height="104.205"/>
					<rect x="111.405" y="122.518" style="fill:#66B2C9;" width="3.64" height="104.205"/>
					<rect x="116.683" y="122.518" style="fill:#66B2C9;" width="3.64" height="104.205"/>
					<rect x="121.961" y="122.518" style="fill:#66B2C9;" width="3.64" height="104.205"/>
					<rect x="127.239" y="122.518" style="fill:#66B2C9;" width="3.641" height="104.205"/>
					<rect x="132.517" y="122.518" style="fill:#66B2C9;" width="3.64" height="104.205"/>
					<rect x="137.795" y="122.518" style="fill:#66B2C9;" width="3.64" height="104.205"/>
					<rect x="143.073" y="122.518" style="fill:#66B2C9;" width="3.64" height="104.205"/>
					<rect x="148.351" y="122.518" style="fill:#66B2C9;" width="3.64" height="104.205"/>
					<rect x="153.629" y="122.518" style="fill:#66B2C9;" width="3.64" height="104.205"/>
				</g>
			</g>
			<g>
				<g>
					<g>
						<rect x="68.396" y="152.6" style="fill:#66B2C9;" width="3.659" height="3.263"/>
						<rect x="84.117" y="149.931" style="fill:#66B2C9;" width="3.658" height="4.746"/>
						<rect x="75.298" y="146.469" style="fill:#66B2C9;" width="5.758" height="11.685"/>
					</g>
					<g>
						<rect x="54.999" y="157.742" style="fill:#46849B;" width="8.602" height="2.175"/>
						<rect x="92.571" y="157.742" style="fill:#46849B;" width="8.602" height="2.175"/>
						<rect x="66.433" y="154.34" style="fill:#46849B;" width="23.306" height="5.327"/>
					</g>
					<rect x="53.392" y="161.821" style="fill:#C5F3FB;" width="49.388" height="78.281"/>
					<g>
						<rect x="56.919" y="165.181" style="fill:#66B2C9;" width="2.016" height="20.158"/>
						<rect x="60.279" y="165.181" style="fill:#66B2C9;" width="2.016" height="20.158"/>
						<rect x="63.639" y="165.181" style="fill:#66B2C9;" width="2.016" height="20.158"/>
						<rect x="66.998" y="165.181" style="fill:#66B2C9;" width="2.016" height="20.158"/>
						<rect x="70.358" y="165.181" style="fill:#66B2C9;" width="2.016" height="20.158"/>
						<rect x="73.718" y="165.181" style="fill:#66B2C9;" width="2.016" height="20.158"/>
						<rect x="77.078" y="165.181" style="fill:#66B2C9;" width="2.016" height="20.158"/>
						<rect x="80.438" y="165.181" style="fill:#66B2C9;" width="2.016" height="20.158"/>
						<rect x="83.797" y="165.181" style="fill:#66B2C9;" width="2.016" height="20.158"/>
						<rect x="87.157" y="165.181" style="fill:#66B2C9;" width="2.016" height="20.158"/>
						<rect x="90.517" y="165.181" style="fill:#66B2C9;" width="2.016" height="20.158"/>
						<rect x="93.877" y="165.181" style="fill:#66B2C9;" width="2.016" height="20.158"/>
						<rect x="97.236" y="165.181" style="fill:#66B2C9;" width="2.016" height="20.158"/>
					</g>
					<g>
						<rect x="56.919" y="198.778" style="fill:#66B2C9;" width="2.016" height="20.158"/>
						<rect x="60.279" y="198.778" style="fill:#66B2C9;" width="2.016" height="20.158"/>
						<rect x="63.639" y="198.778" style="fill:#66B2C9;" width="2.016" height="20.158"/>
						<rect x="66.998" y="198.778" style="fill:#66B2C9;" width="2.016" height="20.158"/>
						<rect x="70.358" y="198.778" style="fill:#66B2C9;" width="2.016" height="20.158"/>
						<rect x="73.718" y="198.778" style="fill:#66B2C9;" width="2.016" height="20.158"/>
						<rect x="77.078" y="198.778" style="fill:#66B2C9;" width="2.016" height="20.158"/>
						<rect x="80.438" y="198.778" style="fill:#66B2C9;" width="2.016" height="20.158"/>
						<rect x="83.797" y="198.778" style="fill:#66B2C9;" width="2.016" height="20.158"/>
						<rect x="87.157" y="198.778" style="fill:#66B2C9;" width="2.016" height="20.158"/>
						<rect x="90.517" y="198.778" style="fill:#66B2C9;" width="2.016" height="20.158"/>
						<rect x="93.877" y="198.778" style="fill:#66B2C9;" width="2.016" height="20.158"/>
						<rect x="97.236" y="198.778" style="fill:#66B2C9;" width="2.016" height="20.158"/>
					</g>
					<g>
						<rect x="56.919" y="187.355" style="fill:#66B2C9;" width="2.016" height="8.735"/>
						<rect x="60.279" y="187.355" style="fill:#66B2C9;" width="2.016" height="8.735"/>
						<rect x="63.639" y="187.355" style="fill:#66B2C9;" width="2.016" height="8.735"/>
						<rect x="66.998" y="187.355" style="fill:#66B2C9;" width="2.016" height="8.735"/>
						<rect x="70.358" y="187.355" style="fill:#66B2C9;" width="2.016" height="8.735"/>
						<rect x="73.718" y="187.355" style="fill:#66B2C9;" width="2.016" height="8.735"/>
						<rect x="77.078" y="187.355" style="fill:#66B2C9;" width="2.016" height="8.735"/>
						<rect x="80.438" y="187.355" style="fill:#66B2C9;" width="2.016" height="8.735"/>
						<rect x="83.797" y="187.355" style="fill:#66B2C9;" width="2.016" height="8.735"/>
						<rect x="87.157" y="187.355" style="fill:#66B2C9;" width="2.016" height="8.735"/>
						<rect x="90.517" y="187.355" style="fill:#66B2C9;" width="2.016" height="8.735"/>
						<rect x="93.877" y="187.355" style="fill:#66B2C9;" width="2.016" height="8.735"/>
						<rect x="97.236" y="187.355" style="fill:#66B2C9;" width="2.016" height="8.735"/>
					</g>
					<rect x="49.192" y="220.952" style="fill:#46849B;" width="57.787" height="21.838"/>
					<rect x="51.681" y="223.304" style="fill:#C5F3FB;" width="52.809" height="4.704"/>
					<g>
						<rect x="51.83" y="230.023" style="fill:#C5F3FB;" width="3.024" height="5.04"/>
						<rect x="56.329" y="230.023" style="fill:#C5F3FB;" width="3.024" height="5.04"/>
						<rect x="60.828" y="230.023" style="fill:#C5F3FB;" width="3.024" height="5.04"/>
						<rect x="65.327" y="230.023" style="fill:#C5F3FB;" width="3.023" height="5.04"/>
						<rect x="69.826" y="230.023" style="fill:#C5F3FB;" width="3.023" height="5.04"/>
						<rect x="74.325" y="230.023" style="fill:#C5F3FB;" width="3.023" height="5.04"/>
						<rect x="78.824" y="230.023" style="fill:#C5F3FB;" width="3.023" height="5.04"/>
						<rect x="83.322" y="230.023" style="fill:#C5F3FB;" width="3.024" height="5.04"/>
						<rect x="87.821" y="230.023" style="fill:#C5F3FB;" width="3.024" height="5.04"/>
						<rect x="92.32" y="230.023" style="fill:#C5F3FB;" width="3.024" height="5.04"/>
						<rect x="96.819" y="230.023" style="fill:#C5F3FB;" width="3.024" height="5.04"/>
						<rect x="101.318" y="230.023" style="fill:#C5F3FB;" width="3.023" height="5.04"/>
					</g>
					<rect x="47.008" y="237.583" style="fill:#315A6A;" width="62.154" height="6.215"/>
					<rect x="52.167" y="159.089" style="fill:#315A6A;" width="51.837" height="3.281"/>
				</g>
				<g>
					<g>
						<rect x="165.065" y="152.6" style="fill:#66B2C9;" width="3.658" height="3.263"/>
						<rect x="180.786" y="149.931" style="fill:#66B2C9;" width="3.658" height="4.746"/>
						<rect x="171.967" y="146.469" style="fill:#66B2C9;" width="5.758" height="11.685"/>
					</g>
					<g>
						<rect x="151.667" y="157.742" style="fill:#46849B;" width="8.602" height="2.175"/>
						<rect x="189.239" y="157.742" style="fill:#46849B;" width="8.602" height="2.175"/>
						<rect x="163.101" y="154.34" style="fill:#46849B;" width="23.307" height="5.327"/>
					</g>
					<rect x="150.061" y="161.821" style="fill:#C5F3FB;" width="49.387" height="78.281"/>
					<g>
						<rect x="153.588" y="165.181" style="fill:#66B2C9;" width="2.016" height="20.158"/>
						<rect x="156.948" y="165.181" style="fill:#66B2C9;" width="2.016" height="20.158"/>
						<rect x="160.308" y="165.181" style="fill:#66B2C9;" width="2.016" height="20.158"/>
						<rect x="163.667" y="165.181" style="fill:#66B2C9;" width="2.016" height="20.158"/>
						<rect x="167.027" y="165.181" style="fill:#66B2C9;" width="2.016" height="20.158"/>
						<rect x="170.387" y="165.181" style="fill:#66B2C9;" width="2.016" height="20.158"/>
						<rect x="173.747" y="165.181" style="fill:#66B2C9;" width="2.016" height="20.158"/>
						<rect x="177.106" y="165.181" style="fill:#66B2C9;" width="2.016" height="20.158"/>
						<rect x="180.466" y="165.181" style="fill:#66B2C9;" width="2.016" height="20.158"/>
						<rect x="183.826" y="165.181" style="fill:#66B2C9;" width="2.016" height="20.158"/>
						<rect x="187.185" y="165.181" style="fill:#66B2C9;" width="2.016" height="20.158"/>
						<rect x="190.545" y="165.181" style="fill:#66B2C9;" width="2.016" height="20.158"/>
						<rect x="193.905" y="165.181" style="fill:#66B2C9;" width="2.016" height="20.158"/>
					</g>
					<g>
						<rect x="153.588" y="198.778" style="fill:#66B2C9;" width="2.016" height="20.158"/>
						<rect x="156.948" y="198.778" style="fill:#66B2C9;" width="2.016" height="20.158"/>
						<rect x="160.308" y="198.778" style="fill:#66B2C9;" width="2.016" height="20.158"/>
						<rect x="163.667" y="198.778" style="fill:#66B2C9;" width="2.016" height="20.158"/>
						<rect x="167.027" y="198.778" style="fill:#66B2C9;" width="2.016" height="20.158"/>
						<rect x="170.387" y="198.778" style="fill:#66B2C9;" width="2.016" height="20.158"/>
						<rect x="173.747" y="198.778" style="fill:#66B2C9;" width="2.016" height="20.158"/>
						<rect x="177.106" y="198.778" style="fill:#66B2C9;" width="2.016" height="20.158"/>
						<rect x="180.466" y="198.778" style="fill:#66B2C9;" width="2.016" height="20.158"/>
						<rect x="183.826" y="198.778" style="fill:#66B2C9;" width="2.016" height="20.158"/>
						<rect x="187.185" y="198.778" style="fill:#66B2C9;" width="2.016" height="20.158"/>
						<rect x="190.545" y="198.778" style="fill:#66B2C9;" width="2.016" height="20.158"/>
						<rect x="193.905" y="198.778" style="fill:#66B2C9;" width="2.016" height="20.158"/>
					</g>
					<g>
						<rect x="153.588" y="187.355" style="fill:#66B2C9;" width="2.016" height="8.735"/>
						<rect x="156.948" y="187.355" style="fill:#66B2C9;" width="2.016" height="8.735"/>
						<rect x="160.308" y="187.355" style="fill:#66B2C9;" width="2.016" height="8.735"/>
						<rect x="163.667" y="187.355" style="fill:#66B2C9;" width="2.016" height="8.735"/>
						<rect x="167.027" y="187.355" style="fill:#66B2C9;" width="2.016" height="8.735"/>
						<rect x="170.387" y="187.355" style="fill:#66B2C9;" width="2.016" height="8.735"/>
						<rect x="173.747" y="187.355" style="fill:#66B2C9;" width="2.016" height="8.735"/>
						<rect x="177.106" y="187.355" style="fill:#66B2C9;" width="2.016" height="8.735"/>
						<rect x="180.466" y="187.355" style="fill:#66B2C9;" width="2.016" height="8.735"/>
						<rect x="183.826" y="187.355" style="fill:#66B2C9;" width="2.016" height="8.735"/>
						<rect x="187.185" y="187.355" style="fill:#66B2C9;" width="2.016" height="8.735"/>
						<rect x="190.545" y="187.355" style="fill:#66B2C9;" width="2.016" height="8.735"/>
						<rect x="193.905" y="187.355" style="fill:#66B2C9;" width="2.016" height="8.735"/>
					</g>
					<rect x="145.861" y="220.952" style="fill:#46849B;" width="57.787" height="21.838"/>
					<rect x="148.35" y="223.304" style="fill:#C5F3FB;" width="52.809" height="4.704"/>
					<g>
						<rect x="148.499" y="230.023" style="fill:#C5F3FB;" width="3.023" height="5.04"/>
						<rect x="152.998" y="230.023" style="fill:#C5F3FB;" width="3.023" height="5.04"/>
						<rect x="157.496" y="230.023" style="fill:#C5F3FB;" width="3.024" height="5.04"/>
						<rect x="161.995" y="230.023" style="fill:#C5F3FB;" width="3.024" height="5.04"/>
						<rect x="166.494" y="230.023" style="fill:#C5F3FB;" width="3.024" height="5.04"/>
						<rect x="170.993" y="230.023" style="fill:#C5F3FB;" width="3.024" height="5.04"/>
						<rect x="175.492" y="230.023" style="fill:#C5F3FB;" width="3.024" height="5.04"/>
						<rect x="179.991" y="230.023" style="fill:#C5F3FB;" width="3.024" height="5.04"/>
						<rect x="184.49" y="230.023" style="fill:#C5F3FB;" width="3.023" height="5.04"/>
						<rect x="188.989" y="230.023" style="fill:#C5F3FB;" width="3.023" height="5.04"/>
						<rect x="193.488" y="230.023" style="fill:#C5F3FB;" width="3.023" height="5.04"/>
						<rect x="197.987" y="230.023" style="fill:#C5F3FB;" width="3.023" height="5.04"/>
					</g>
					<rect x="143.677" y="237.583" style="fill:#315A6A;" width="62.154" height="6.215"/>
					<rect x="148.836" y="159.089" style="fill:#315A6A;" width="51.837" height="3.281"/>
				</g>
			</g>
			<rect x="80.752" y="206.626" style="fill:#315A6A;" width="91.337" height="37.172"/>
			<rect x="80.752" y="206.626" style="fill:#46849B;" width="91.337" height="4.042"/>
			<rect x="101.452" y="72.218" style="fill:#C5F3FB;" width="49.937" height="1.752"/>
			<rect x="109.535" y="63.895" style="fill:#C5F3FB;" width="33.77" height="1.753"/>
			<rect x="124.641" y="78.866" style="fill:#315A6A;" width="3.558" height="5.52"/>
			<rect x="124.641" y="78.866" style="fill:#315A6A;" width="3.558" height="5.52"/>
			<g>
				<rect x="87.248" y="214.284" style="fill:#C5F3FB;" width="3.731" height="5.13"/>
				<rect x="93.466" y="214.284" style="fill:#C5F3FB;" width="3.731" height="5.13"/>
				<rect x="99.684" y="214.284" style="fill:#C5F3FB;" width="3.73" height="5.13"/>
				<rect x="105.901" y="214.284" style="fill:#C5F3FB;" width="3.731" height="5.13"/>
				<rect x="112.119" y="214.284" style="fill:#C5F3FB;" width="3.731" height="5.13"/>
				<rect x="118.337" y="214.284" style="fill:#C5F3FB;" width="3.731" height="5.13"/>
				<rect x="124.555" y="214.284" style="fill:#C5F3FB;" width="3.731" height="5.13"/>
				<rect x="130.773" y="214.284" style="fill:#C5F3FB;" width="3.731" height="5.13"/>
				<rect x="136.99" y="214.284" style="fill:#C5F3FB;" width="3.731" height="5.13"/>
				<rect x="143.208" y="214.284" style="fill:#C5F3FB;" width="3.731" height="5.13"/>
				<rect x="149.426" y="214.284" style="fill:#C5F3FB;" width="3.731" height="5.13"/>
				<rect x="155.644" y="214.284" style="fill:#C5F3FB;" width="3.731" height="5.13"/>
				<rect x="161.861" y="214.284" style="fill:#C5F3FB;" width="3.731" height="5.13"/>
			</g>
			<g>
				<rect x="87.248" y="221.434" style="fill:#C5F3FB;" width="3.731" height="5.13"/>
				<rect x="93.466" y="221.434" style="fill:#C5F3FB;" width="3.731" height="5.13"/>
				<rect x="99.684" y="221.434" style="fill:#C5F3FB;" width="3.73" height="5.13"/>
				<rect x="105.901" y="221.434" style="fill:#C5F3FB;" width="3.731" height="5.13"/>
				<rect x="112.119" y="221.434" style="fill:#C5F3FB;" width="3.731" height="5.13"/>
				<rect x="118.337" y="221.434" style="fill:#C5F3FB;" width="3.731" height="5.13"/>
				<rect x="124.555" y="221.434" style="fill:#C5F3FB;" width="3.731" height="5.13"/>
				<rect x="130.773" y="221.434" style="fill:#C5F3FB;" width="3.731" height="5.13"/>
				<rect x="136.99" y="221.434" style="fill:#C5F3FB;" width="3.731" height="5.13"/>
				<rect x="143.208" y="221.434" style="fill:#C5F3FB;" width="3.731" height="5.13"/>
				<rect x="149.426" y="221.434" style="fill:#C5F3FB;" width="3.731" height="5.13"/>
				<rect x="155.644" y="221.434" style="fill:#C5F3FB;" width="3.731" height="5.13"/>
				<rect x="161.861" y="221.434" style="fill:#C5F3FB;" width="3.731" height="5.13"/>
			</g>
			<rect x="105.59" y="229.828" style="fill:#66B2C9;" width="41.659" height="13.835"/>
			<rect x="124.011" y="233.87" style="fill:#C5F3FB;" width="4.819" height="9.949"/>
			<rect x="37.021" y="242.566" style="fill:#CBCCCE;" width="178.799" height="6.813"/>
			<rect x="27.061" y="245.011" style="fill:#AAAAAA;" width="198.718" height="5.352"/>
		</g>
	</g>
	<g>
		<g>
			<rect x="102.54" y="292.015" style="fill:#AD634D;" width="0.979" height="7.347"/>
			<path style="fill:#77B257;" d="M106.238,290.257c0,1.771-1.436,3.207-3.208,3.207c-1.771,0-3.207-1.436-3.207-3.207
				c0-1.771,1.436-3.208,3.207-3.208C104.802,287.049,106.238,288.485,106.238,290.257z"/>
			<rect x="126.562" y="292.228" style="fill:#AD634D;" width="0.794" height="5.952"/>
			<path style="fill:#77B257;" d="M129.558,290.803c0,1.436-1.164,2.599-2.6,2.599c-1.436,0-2.599-1.163-2.599-2.599
				c0-1.436,1.163-2.6,2.599-2.6C128.394,288.203,129.558,289.367,129.558,290.803z"/>
			<rect x="133.851" y="288.283" style="fill:#AD634D;" width="1.259" height="9.442"/>
			<path style="fill:#77B257;" d="M138.604,286.022c0,2.277-1.846,4.123-4.123,4.123c-2.277,0-4.123-1.846-4.123-4.123
				c0-2.276,1.846-4.123,4.123-4.123C136.757,281.899,138.604,283.746,138.604,286.022z"/>
			<rect x="110.165" y="289.81" style="fill:#AD634D;" width="0.979" height="7.347"/>
			<path style="fill:#5CA17A;" d="M113.863,288.053c0,1.771-1.436,3.207-3.208,3.207c-1.771,0-3.207-1.436-3.207-3.207
				c0-1.771,1.436-3.208,3.207-3.208C112.427,284.845,113.863,286.281,113.863,288.053z"/>
			<rect x="118.874" y="289.379" style="fill:#AD634D;" width="1.17" height="8.778"/>
			<path style="fill:#5CA17A;" d="M123.293,287.277c0,2.117-1.716,3.833-3.833,3.833c-2.117,0-3.833-1.716-3.833-3.833
				c0-2.116,1.716-3.833,3.833-3.833C121.576,283.444,123.293,285.161,123.293,287.277z"/>
		</g>
		<g>
			<rect x="97.118" y="296.222" style="fill:#2C2C2C;" width="45.147" height="17.716"/>
			<rect x="92.369" y="306.052" style="fill:#315A6A;" width="54.201" height="4.883"/>
			<rect x="149.159" y="317.713" style="fill:#2C2C2C;" width="56.032" height="56.882"/>
			<rect x="145.338" y="404.576" style="fill:#2C2C2C;" width="52.984" height="17.985"/>
			<rect x="42.612" y="360.587" style="fill:#315A6A;" width="61.551" height="61.975"/>
			<rect x="66.468" y="415.238" style="fill:#233C45;" width="3.75" height="7.323"/>
			<rect x="83.363" y="307.525" style="fill:#233C45;" width="68.767" height="115.036"/>
			<rect x="158.998" y="314.945" style="fill:#315A6A;" width="64.946" height="64.946"/>
			<rect x="164.591" y="320.54" style="fill:#C5F3FB;" width="53.758" height="53.758"/>
			<rect x="166.734" y="322.683" style="fill:#66B2C9;" width="49.473" height="49.473"/>
			<g>
				<rect x="83.363" y="312.129" style="fill:#66B2C9;" width="25.893" height="7.216"/>
				<rect x="83.363" y="324.015" style="fill:#66B2C9;" width="25.893" height="7.216"/>
				<rect x="83.363" y="335.9" style="fill:#66B2C9;" width="25.893" height="7.216"/>
				<rect x="83.363" y="347.786" style="fill:#66B2C9;" width="25.893" height="7.216"/>
				<rect x="83.363" y="359.672" style="fill:#66B2C9;" width="25.893" height="7.216"/>
				<rect x="83.363" y="371.558" style="fill:#66B2C9;" width="25.893" height="7.216"/>
				<rect x="83.363" y="383.443" style="fill:#66B2C9;" width="25.893" height="7.216"/>
				<rect x="83.363" y="395.328" style="fill:#66B2C9;" width="25.893" height="7.217"/>
				<rect x="83.363" y="407.214" style="fill:#66B2C9;" width="25.893" height="7.217"/>
			</g>
			<g>
				<rect x="112.435" y="312.129" style="fill:#2C2C2C;" width="4.089" height="7.216"/>
				<rect x="112.435" y="324.015" style="fill:#2C2C2C;" width="4.089" height="7.216"/>
				<rect x="112.435" y="335.9" style="fill:#2C2C2C;" width="4.089" height="7.216"/>
				<rect x="112.435" y="347.786" style="fill:#2C2C2C;" width="4.089" height="7.216"/>
				<rect x="112.435" y="359.672" style="fill:#2C2C2C;" width="4.089" height="7.216"/>
				<rect x="112.435" y="371.558" style="fill:#2C2C2C;" width="4.089" height="7.216"/>
				<rect x="112.435" y="383.443" style="fill:#2C2C2C;" width="4.089" height="7.216"/>
				<rect x="112.435" y="395.328" style="fill:#2C2C2C;" width="4.089" height="7.217"/>
				<rect x="112.435" y="407.214" style="fill:#2C2C2C;" width="4.089" height="7.217"/>
			</g>
			<path style="fill:#233C45;" d="M210.285,422.561h-52.636v-26.318h29.61c12.717,0,23.026,10.31,23.026,23.026V422.561z"/>
			<g style="opacity:0.2;">
				<g>
					<rect x="169.317" y="324.629" style="fill:#315A6A;" width="3.605" height="3.605"/>
					<rect x="174.405" y="324.629" style="fill:#315A6A;" width="3.604" height="3.605"/>
					<rect x="179.493" y="324.629" style="fill:#315A6A;" width="3.604" height="3.605"/>
					<rect x="184.581" y="324.629" style="fill:#315A6A;" width="3.605" height="3.605"/>
					<rect x="189.669" y="324.629" style="fill:#315A6A;" width="3.604" height="3.605"/>
					<rect x="194.756" y="324.629" style="fill:#315A6A;" width="3.604" height="3.605"/>
					<rect x="199.844" y="324.629" style="fill:#315A6A;" width="3.604" height="3.605"/>
					<rect x="204.932" y="324.629" style="fill:#315A6A;" width="3.603" height="3.605"/>
					<rect x="210.02" y="324.629" style="fill:#315A6A;" width="3.603" height="3.605"/>
				</g>
				<g>
					<rect x="169.317" y="329.293" style="fill:#315A6A;" width="3.605" height="3.605"/>
					<rect x="174.405" y="329.293" style="fill:#315A6A;" width="3.604" height="3.605"/>
					<rect x="179.493" y="329.293" style="fill:#315A6A;" width="3.604" height="3.605"/>
					<rect x="184.581" y="329.293" style="fill:#315A6A;" width="3.605" height="3.605"/>
					<rect x="189.669" y="329.293" style="fill:#315A6A;" width="3.604" height="3.605"/>
					<rect x="194.756" y="329.293" style="fill:#315A6A;" width="3.604" height="3.605"/>
					<rect x="199.844" y="329.293" style="fill:#315A6A;" width="3.604" height="3.605"/>
					<rect x="204.932" y="329.293" style="fill:#315A6A;" width="3.603" height="3.605"/>
					<rect x="210.02" y="329.293" style="fill:#315A6A;" width="3.603" height="3.605"/>
				</g>
				<g>
					<rect x="169.317" y="333.957" style="fill:#315A6A;" width="3.605" height="3.603"/>
					<rect x="174.405" y="333.957" style="fill:#315A6A;" width="3.604" height="3.603"/>
					<rect x="179.493" y="333.957" style="fill:#315A6A;" width="3.604" height="3.603"/>
					<rect x="184.581" y="333.957" style="fill:#315A6A;" width="3.605" height="3.603"/>
					<rect x="189.669" y="333.957" style="fill:#315A6A;" width="3.604" height="3.603"/>
					<rect x="194.756" y="333.957" style="fill:#315A6A;" width="3.604" height="3.603"/>
					<rect x="199.844" y="333.957" style="fill:#315A6A;" width="3.604" height="3.603"/>
					<rect x="204.932" y="333.957" style="fill:#315A6A;" width="3.603" height="3.603"/>
					<rect x="210.02" y="333.957" style="fill:#315A6A;" width="3.603" height="3.603"/>
				</g>
				<g>
					<rect x="169.317" y="338.621" style="fill:#315A6A;" width="3.605" height="3.603"/>
					<rect x="174.405" y="338.621" style="fill:#315A6A;" width="3.604" height="3.603"/>
					<rect x="179.493" y="338.621" style="fill:#315A6A;" width="3.604" height="3.603"/>
					<rect x="184.581" y="338.621" style="fill:#315A6A;" width="3.605" height="3.603"/>
					<rect x="189.669" y="338.621" style="fill:#315A6A;" width="3.604" height="3.603"/>
					<rect x="194.756" y="338.621" style="fill:#315A6A;" width="3.604" height="3.603"/>
					<rect x="199.844" y="338.621" style="fill:#315A6A;" width="3.604" height="3.603"/>
					<rect x="204.932" y="338.621" style="fill:#315A6A;" width="3.603" height="3.603"/>
					<rect x="210.02" y="338.621" style="fill:#315A6A;" width="3.603" height="3.603"/>
				</g>
				<g>
					<rect x="169.317" y="343.285" style="fill:#315A6A;" width="3.605" height="3.603"/>
					<rect x="174.405" y="343.285" style="fill:#315A6A;" width="3.604" height="3.603"/>
					<rect x="179.493" y="343.285" style="fill:#315A6A;" width="3.604" height="3.603"/>
					<rect x="184.581" y="343.285" style="fill:#315A6A;" width="3.605" height="3.603"/>
					<rect x="189.669" y="343.285" style="fill:#315A6A;" width="3.604" height="3.603"/>
					<rect x="194.756" y="343.285" style="fill:#315A6A;" width="3.604" height="3.603"/>
					<rect x="199.844" y="343.285" style="fill:#315A6A;" width="3.604" height="3.603"/>
					<rect x="204.932" y="343.285" style="fill:#315A6A;" width="3.603" height="3.603"/>
					<rect x="210.02" y="343.285" style="fill:#315A6A;" width="3.603" height="3.603"/>
				</g>
				<g>
					<rect x="169.317" y="347.948" style="fill:#315A6A;" width="3.605" height="3.605"/>
					<rect x="174.405" y="347.948" style="fill:#315A6A;" width="3.604" height="3.605"/>
					<rect x="179.493" y="347.948" style="fill:#315A6A;" width="3.604" height="3.605"/>
					<rect x="184.581" y="347.948" style="fill:#315A6A;" width="3.605" height="3.605"/>
					<rect x="189.669" y="347.948" style="fill:#315A6A;" width="3.604" height="3.605"/>
					<rect x="194.756" y="347.948" style="fill:#315A6A;" width="3.604" height="3.605"/>
					<rect x="199.844" y="347.948" style="fill:#315A6A;" width="3.604" height="3.605"/>
					<rect x="204.932" y="347.948" style="fill:#315A6A;" width="3.603" height="3.605"/>
					<rect x="210.02" y="347.948" style="fill:#315A6A;" width="3.603" height="3.605"/>
				</g>
				<g>
					<rect x="169.317" y="352.612" style="fill:#315A6A;" width="3.605" height="3.603"/>
					<rect x="174.405" y="352.612" style="fill:#315A6A;" width="3.604" height="3.603"/>
					<rect x="179.493" y="352.612" style="fill:#315A6A;" width="3.604" height="3.603"/>
					<rect x="184.581" y="352.612" style="fill:#315A6A;" width="3.605" height="3.603"/>
					<rect x="189.669" y="352.612" style="fill:#315A6A;" width="3.604" height="3.603"/>
					<rect x="194.756" y="352.612" style="fill:#315A6A;" width="3.604" height="3.603"/>
					<rect x="199.844" y="352.612" style="fill:#315A6A;" width="3.604" height="3.603"/>
					<rect x="204.932" y="352.612" style="fill:#315A6A;" width="3.603" height="3.603"/>
					<rect x="210.02" y="352.612" style="fill:#315A6A;" width="3.603" height="3.603"/>
				</g>
				<g>
					<rect x="169.317" y="357.276" style="fill:#315A6A;" width="3.605" height="3.603"/>
					<rect x="174.405" y="357.276" style="fill:#315A6A;" width="3.604" height="3.603"/>
					<rect x="179.493" y="357.276" style="fill:#315A6A;" width="3.604" height="3.603"/>
					<rect x="184.581" y="357.276" style="fill:#315A6A;" width="3.605" height="3.603"/>
					<rect x="189.669" y="357.276" style="fill:#315A6A;" width="3.604" height="3.603"/>
					<rect x="194.756" y="357.276" style="fill:#315A6A;" width="3.604" height="3.603"/>
					<rect x="199.844" y="357.276" style="fill:#315A6A;" width="3.604" height="3.603"/>
					<rect x="204.932" y="357.276" style="fill:#315A6A;" width="3.603" height="3.603"/>
					<rect x="210.02" y="357.276" style="fill:#315A6A;" width="3.603" height="3.603"/>
				</g>
				<g>
					<rect x="169.317" y="361.94" style="fill:#315A6A;" width="3.605" height="3.603"/>
					<rect x="174.405" y="361.94" style="fill:#315A6A;" width="3.604" height="3.603"/>
					<rect x="179.493" y="361.94" style="fill:#315A6A;" width="3.604" height="3.603"/>
					<rect x="184.581" y="361.94" style="fill:#315A6A;" width="3.605" height="3.603"/>
					<rect x="189.669" y="361.94" style="fill:#315A6A;" width="3.604" height="3.603"/>
					<rect x="194.756" y="361.94" style="fill:#315A6A;" width="3.604" height="3.603"/>
					<rect x="199.844" y="361.94" style="fill:#315A6A;" width="3.604" height="3.603"/>
					<rect x="204.932" y="361.94" style="fill:#315A6A;" width="3.603" height="3.603"/>
					<rect x="210.02" y="361.94" style="fill:#315A6A;" width="3.603" height="3.603"/>
				</g>
				<g>
					<rect x="169.317" y="366.603" style="fill:#315A6A;" width="3.605" height="3.605"/>
					<rect x="174.405" y="366.603" style="fill:#315A6A;" width="3.604" height="3.605"/>
					<rect x="179.493" y="366.603" style="fill:#315A6A;" width="3.604" height="3.605"/>
					<rect x="184.581" y="366.603" style="fill:#315A6A;" width="3.605" height="3.605"/>
					<rect x="189.669" y="366.603" style="fill:#315A6A;" width="3.604" height="3.605"/>
					<rect x="194.756" y="366.603" style="fill:#315A6A;" width="3.604" height="3.605"/>
					<rect x="199.844" y="366.603" style="fill:#315A6A;" width="3.604" height="3.605"/>
					<rect x="204.932" y="366.603" style="fill:#315A6A;" width="3.603" height="3.605"/>
					<rect x="210.02" y="366.603" style="fill:#315A6A;" width="3.603" height="3.605"/>
				</g>
			</g>
			<rect x="45.051" y="363.759" style="fill:#C5F3FB;" width="3.045" height="13.92"/>
			<rect x="49.836" y="363.759" style="fill:#C5F3FB;" width="3.045" height="13.92"/>
			<rect x="54.621" y="363.759" style="fill:#C5F3FB;" width="3.045" height="13.92"/>
			<rect x="59.406" y="363.759" style="fill:#C5F3FB;" width="3.045" height="13.92"/>
			<rect x="64.191" y="363.759" style="fill:#C5F3FB;" width="3.045" height="13.92"/>
			<rect x="68.976" y="363.759" style="fill:#C5F3FB;" width="3.045" height="13.92"/>
			<rect x="73.76" y="363.759" style="fill:#C5F3FB;" width="3.045" height="13.92"/>
			<rect x="45.051" y="382.412" style="fill:#C5F3FB;" width="3.045" height="13.92"/>
			<rect x="49.836" y="382.412" style="fill:#C5F3FB;" width="3.045" height="13.92"/>
			<rect x="54.621" y="382.412" style="fill:#C5F3FB;" width="3.045" height="13.92"/>
			<rect x="59.406" y="382.412" style="fill:#C5F3FB;" width="3.045" height="13.92"/>
			<rect x="64.191" y="382.412" style="fill:#C5F3FB;" width="3.045" height="13.92"/>
			<rect x="68.976" y="382.412" style="fill:#C5F3FB;" width="3.045" height="13.92"/>
			<rect x="73.76" y="382.412" style="fill:#C5F3FB;" width="3.045" height="13.92"/>
			<rect x="45.051" y="405.027" style="fill:#C5F3FB;" width="3.045" height="2.289"/>
			<rect x="49.836" y="405.027" style="fill:#C5F3FB;" width="3.045" height="2.289"/>
			<rect x="54.621" y="405.027" style="fill:#C5F3FB;" width="3.045" height="2.289"/>
			<rect x="59.406" y="405.027" style="fill:#C5F3FB;" width="3.045" height="2.289"/>
			<rect x="64.191" y="405.027" style="fill:#C5F3FB;" width="3.045" height="2.289"/>
			<rect x="68.976" y="405.027" style="fill:#C5F3FB;" width="3.045" height="2.289"/>
			<rect x="73.76" y="405.027" style="fill:#C5F3FB;" width="3.045" height="2.289"/>
			<rect x="163.234" y="415.238" style="fill:#315A6A;" width="15.276" height="7.323"/>
			<rect x="163.151" y="409.433" style="fill:#C5F3FB;" width="33.929" height="2.175"/>
			<rect x="163.151" y="404.969" style="fill:#C5F3FB;" width="29.107" height="2.175"/>
			<rect x="163.151" y="400.505" style="fill:#C5F3FB;" width="24.106" height="2.175"/>
		</g>
		<g>
			<rect x="32.538" y="423.258" style="fill:#CBCCCE;" width="187.765" height="7.154"/>
			<rect x="22.079" y="425.825" style="fill:#AAAAAA;" width="208.682" height="5.62"/>
		</g>
	</g>
	<g>
		<g>
			<g>
				<rect x="289.404" y="419.383" style="fill:#AD634D;" width="1.073" height="8.051"/>
				<path style="fill:#5CA17A;" d="M293.456,417.456c0,1.941-1.573,3.515-3.515,3.515c-1.941,0-3.515-1.573-3.515-3.515
					c0-1.941,1.574-3.515,3.515-3.515C291.882,413.941,293.456,415.515,293.456,417.456z"/>
			</g>
			<g>
				<rect x="297.857" y="416.874" style="fill:#AD634D;" width="1.073" height="8.05"/>
				<path style="fill:#5CA17A;" d="M301.909,414.947c0,1.94-1.574,3.515-3.515,3.515c-1.941,0-3.515-1.574-3.515-3.515
					c0-1.941,1.574-3.516,3.515-3.516C300.335,411.432,301.909,413.006,301.909,414.947z"/>
			</g>
			<g>
				
					<rect x="472.448" y="419.383" transform="matrix(-1 -1.224647e-16 1.224647e-16 -1 945.9688 846.8164)" style="fill:#AD634D;" width="1.073" height="8.051"/>
				<path style="fill:#5CA17A;" d="M469.469,417.456c0,1.941,1.574,3.515,3.515,3.515c1.941,0,3.516-1.573,3.516-3.515
					c0-1.941-1.574-3.515-3.516-3.515C471.043,413.941,469.469,415.515,469.469,417.456z"/>
			</g>
			<g>
				
					<rect x="463.995" y="416.874" transform="matrix(-1 -1.224647e-16 1.224647e-16 -1 929.0625 841.7978)" style="fill:#AD634D;" width="1.073" height="8.05"/>
				<path style="fill:#5CA17A;" d="M461.016,414.947c0,1.94,1.574,3.515,3.515,3.515c1.941,0,3.515-1.574,3.515-3.515
					c0-1.941-1.574-3.516-3.515-3.516C462.59,411.432,461.016,413.006,461.016,414.947z"/>
			</g>
		</g>
		<g>
			<rect x="410.802" y="286.01" style="fill:#AAAAAA;" width="4.227" height="21.925"/>
			<rect x="412.161" y="287.923" style="fill:#4F4F4F;" width="1.509" height="18.099"/>
			<rect x="408.777" y="298.073" style="fill:#E3E2E4;" width="7.925" height="7.397"/>
			<path style="fill:#C5F3FB;" d="M333.863,278.438c0,5.458-4.424,9.883-9.883,9.883c-5.458,0-9.883-4.425-9.883-9.883
				s4.425-9.883,9.883-9.883C329.439,268.555,333.863,272.979,333.863,278.438z"/>
			<rect x="313.514" y="276.066" style="fill:#4F4F4F;" width="20.932" height="21.417"/>
			<rect x="311.172" y="280.054" style="fill:#79B0BC;" width="25.615" height="19.782"/>
			<rect x="350.31" y="323.521" style="fill:#AAAAAA;" width="8.717" height="6.603"/>
			<rect x="354.273" y="303.973" style="fill:#AAAAAA;" width="1.057" height="25.888"/>
			<rect x="348.99" y="328.011" style="fill:#E3E2E4;" width="11.358" height="8.453"/>
			<circle style="fill:#C5F3FB;" cx="430.878" cy="300.803" r="10.566"/>
			<rect x="417.935" y="300.803" style="fill:#4F4F4F;" width="25.358" height="7.66"/>
			<rect x="407.104" y="303.973" style="fill:#79B0BC;" width="39.096" height="10.566"/>
			<polygon style="fill:#4F4F4F;" points="448.313,336.464 361.405,336.464 403.142,309.256 448.313,309.256 			"/>
			<polygon style="fill:#666666;" points="448.313,336.464 370.21,336.464 411.947,309.256 448.313,309.256 			"/>
			<rect x="426.56" y="321.409" style="fill:#C5F3FB;" width="14.168" height="15.167"/>
			<rect x="415.251" y="321.409" style="fill:#4F4F4F;" width="5.4" height="15.167"/>
			<rect x="405.918" y="321.409" style="fill:#4F4F4F;" width="5.4" height="15.167"/>
			<rect x="346.084" y="333.822" style="fill:#CBCCCE;" width="106.191" height="10.302"/>
			<rect x="304.707" y="286.466" style="fill:#4F4F4F;" width="38.546" height="141.148"/>
			<rect x="310.981" y="380.571" style="fill:#CBCCCE;" width="32.88" height="47.043"/>
			<rect x="310.981" y="347.463" style="fill:#CBCCCE;" width="32.88" height="20.349"/>
			<rect x="318.519" y="340.524" style="fill:#46849B;" width="126.667" height="87.09"/>
			<g>
				<defs>
					<polygon id="XMLID_2_" points="445.186,427.614 338.159,427.614 318.519,340.524 445.186,340.524 					"/>
				</defs>
				<use xlink:href="#XMLID_2_"  style="overflow:visible;fill:#C5F3FB;"/>
				<clipPath id="XMLID_00000167373814500786305070000005527134365361569420_">
					<use xlink:href="#XMLID_2_"  style="overflow:visible;"/>
				</clipPath>
				
					<rect x="316.871" y="418.113" style="opacity:0.14;clip-path:url(#XMLID_00000167373814500786305070000005527134365361569420_);fill:#4F4F4F;" width="33.799" height="1.567"/>
				
					<rect x="316.871" y="407.434" style="opacity:0.14;clip-path:url(#XMLID_00000167373814500786305070000005527134365361569420_);fill:#4F4F4F;" width="33.799" height="1.568"/>
				
					<rect x="316.871" y="396.755" style="opacity:0.14;clip-path:url(#XMLID_00000167373814500786305070000005527134365361569420_);fill:#4F4F4F;" width="33.799" height="1.567"/>
				
					<rect x="316.871" y="386.076" style="opacity:0.14;clip-path:url(#XMLID_00000167373814500786305070000005527134365361569420_);fill:#4F4F4F;" width="33.799" height="1.567"/>
				
					<rect x="316.871" y="375.397" style="opacity:0.14;clip-path:url(#XMLID_00000167373814500786305070000005527134365361569420_);fill:#4F4F4F;" width="33.799" height="1.567"/>
				
					<rect x="316.871" y="364.718" style="opacity:0.14;clip-path:url(#XMLID_00000167373814500786305070000005527134365361569420_);fill:#4F4F4F;" width="33.799" height="1.567"/>
				
					<rect x="316.871" y="354.038" style="opacity:0.14;clip-path:url(#XMLID_00000167373814500786305070000005527134365361569420_);fill:#4F4F4F;" width="33.799" height="1.568"/>
				
					<rect x="316.871" y="343.359" style="opacity:0.14;clip-path:url(#XMLID_00000167373814500786305070000005527134365361569420_);fill:#4F4F4F;" width="33.799" height="1.567"/>
			</g>
			<polygon style="fill:#79B0BC;" points="458.218,427.614 338.265,427.614 347.658,340.524 458.218,340.524 			"/>
			
				<rect x="440.649" y="340.524" transform="matrix(-1 -1.224647e-16 1.224647e-16 -1 883.497 768.1387)" style="fill:#E3E2E4;" width="2.199" height="87.09"/>
			
				<rect x="424.636" y="340.524" transform="matrix(-1 -1.224647e-16 1.224647e-16 -1 851.4716 768.1387)" style="fill:#E3E2E4;" width="2.199" height="87.09"/>
			
				<rect x="408.624" y="340.524" transform="matrix(-1 -1.224647e-16 1.224647e-16 -1 819.4463 768.1387)" style="fill:#E3E2E4;" width="2.199" height="87.09"/>
			
				<rect x="392.611" y="340.524" transform="matrix(-1 -1.224647e-16 1.224647e-16 -1 787.4209 768.1387)" style="fill:#E3E2E4;" width="2.199" height="87.09"/>
			
				<rect x="376.598" y="340.524" transform="matrix(-1 -1.224647e-16 1.224647e-16 -1 755.3955 768.1387)" style="fill:#E3E2E4;" width="2.199" height="87.09"/>
			
				<rect x="360.585" y="340.524" transform="matrix(-1 -1.224647e-16 1.224647e-16 -1 723.3701 768.1387)" style="fill:#E3E2E4;" width="2.199" height="87.09"/>
			<g>
				<rect x="447.078" y="346.488" style="fill:#C5F3FB;" width="5.354" height="13.244"/>
				<rect x="447.078" y="364.563" style="fill:#C5F3FB;" width="5.354" height="13.243"/>
				<rect x="447.078" y="382.636" style="fill:#C5F3FB;" width="5.354" height="13.243"/>
				<rect x="447.078" y="400.71" style="fill:#C5F3FB;" width="5.354" height="13.243"/>
			</g>
			<g>
				<rect x="431.065" y="346.488" style="fill:#C5F3FB;" width="5.354" height="13.244"/>
				<rect x="431.065" y="364.563" style="fill:#C5F3FB;" width="5.354" height="13.243"/>
				<rect x="431.065" y="382.636" style="fill:#C5F3FB;" width="5.354" height="13.243"/>
				<rect x="431.065" y="400.71" style="fill:#C5F3FB;" width="5.354" height="13.243"/>
			</g>
			<g>
				<rect x="415.053" y="346.488" style="fill:#C5F3FB;" width="5.354" height="13.244"/>
				<rect x="415.053" y="364.563" style="fill:#C5F3FB;" width="5.354" height="13.243"/>
				<rect x="415.053" y="382.636" style="fill:#C5F3FB;" width="5.354" height="13.243"/>
				<rect x="415.053" y="400.71" style="fill:#C5F3FB;" width="5.354" height="13.243"/>
			</g>
			<g>
				<rect x="399.04" y="346.488" style="fill:#C5F3FB;" width="5.354" height="13.244"/>
				<rect x="399.04" y="364.563" style="fill:#C5F3FB;" width="5.354" height="13.243"/>
				<rect x="399.04" y="382.636" style="fill:#C5F3FB;" width="5.354" height="13.243"/>
				<rect x="399.04" y="400.71" style="fill:#C5F3FB;" width="5.354" height="13.243"/>
			</g>
			<g>
				<rect x="383.027" y="346.488" style="fill:#C5F3FB;" width="5.354" height="13.244"/>
				<rect x="383.027" y="364.563" style="fill:#C5F3FB;" width="5.354" height="13.243"/>
				<rect x="383.027" y="382.636" style="fill:#C5F3FB;" width="5.354" height="13.243"/>
				<rect x="383.027" y="400.71" style="fill:#C5F3FB;" width="5.354" height="13.243"/>
			</g>
			<g>
				<rect x="367.015" y="346.488" style="fill:#C5F3FB;" width="5.354" height="13.244"/>
				<rect x="367.015" y="364.563" style="fill:#C5F3FB;" width="5.354" height="13.243"/>
				<rect x="367.015" y="382.636" style="fill:#C5F3FB;" width="5.354" height="13.243"/>
				<rect x="367.015" y="400.71" style="fill:#C5F3FB;" width="5.354" height="13.243"/>
			</g>
			<g>
				<rect x="351.002" y="346.488" style="fill:#C5F3FB;" width="5.354" height="13.244"/>
				<rect x="447.078" y="346.488" style="fill:#C5F3FB;" width="5.354" height="13.244"/>
				<rect x="431.065" y="346.488" style="fill:#C5F3FB;" width="5.354" height="13.244"/>
				<rect x="415.053" y="346.488" style="fill:#C5F3FB;" width="5.354" height="13.244"/>
				<rect x="399.04" y="346.488" style="fill:#C5F3FB;" width="5.354" height="13.244"/>
				<rect x="383.027" y="346.488" style="fill:#C5F3FB;" width="5.354" height="13.244"/>
				<rect x="367.015" y="346.488" style="fill:#C5F3FB;" width="5.354" height="13.244"/>
				<rect x="351.002" y="346.488" style="fill:#C5F3FB;" width="5.354" height="13.244"/>
				<rect x="351.002" y="364.563" style="fill:#C5F3FB;" width="5.354" height="13.243"/>
				<rect x="351.002" y="382.636" style="fill:#C5F3FB;" width="5.354" height="13.243"/>
				<rect x="351.002" y="400.71" style="fill:#C5F3FB;" width="5.354" height="13.243"/>
			</g>
			<g>
				<rect x="447.078" y="357.435" style="fill:#46849B;" width="5.354" height="2.297"/>
				<rect x="431.065" y="357.435" style="fill:#46849B;" width="5.354" height="2.297"/>
				<rect x="415.053" y="357.435" style="fill:#46849B;" width="5.354" height="2.297"/>
				<rect x="399.04" y="357.435" style="fill:#46849B;" width="5.354" height="2.297"/>
				<rect x="383.027" y="357.435" style="fill:#46849B;" width="5.354" height="2.297"/>
				<rect x="367.015" y="357.435" style="fill:#46849B;" width="5.354" height="2.297"/>
				<rect x="351.002" y="357.435" style="fill:#46849B;" width="5.354" height="2.297"/>
			</g>
			<g>
				<rect x="447.078" y="375.609" style="fill:#46849B;" width="5.354" height="2.296"/>
				<rect x="431.065" y="375.609" style="fill:#46849B;" width="5.354" height="2.296"/>
				<rect x="415.053" y="375.609" style="fill:#46849B;" width="5.354" height="2.296"/>
				<rect x="399.04" y="375.609" style="fill:#46849B;" width="5.354" height="2.296"/>
				<rect x="383.027" y="375.609" style="fill:#46849B;" width="5.354" height="2.296"/>
				<rect x="367.015" y="375.609" style="fill:#46849B;" width="5.354" height="2.296"/>
				<rect x="351.002" y="375.609" style="fill:#46849B;" width="5.354" height="2.296"/>
			</g>
			<g>
				<rect x="447.078" y="393.782" style="fill:#46849B;" width="5.354" height="2.296"/>
				<rect x="431.065" y="393.782" style="fill:#46849B;" width="5.354" height="2.296"/>
				<rect x="415.053" y="393.782" style="fill:#46849B;" width="5.354" height="2.296"/>
				<rect x="399.04" y="393.782" style="fill:#46849B;" width="5.354" height="2.296"/>
				<rect x="383.027" y="393.782" style="fill:#46849B;" width="5.354" height="2.296"/>
				<rect x="367.015" y="393.782" style="fill:#46849B;" width="5.354" height="2.296"/>
				<rect x="351.002" y="393.782" style="fill:#46849B;" width="5.354" height="2.296"/>
			</g>
			<g>
				<rect x="447.078" y="411.956" style="fill:#46849B;" width="5.354" height="2.296"/>
				<rect x="431.065" y="411.956" style="fill:#46849B;" width="5.354" height="2.296"/>
				<rect x="415.053" y="411.956" style="fill:#46849B;" width="5.354" height="2.296"/>
				<rect x="399.04" y="411.956" style="fill:#46849B;" width="5.354" height="2.296"/>
				<rect x="383.027" y="411.956" style="fill:#46849B;" width="5.354" height="2.296"/>
				<rect x="367.015" y="411.956" style="fill:#46849B;" width="5.354" height="2.296"/>
				<rect x="351.002" y="411.956" style="fill:#46849B;" width="5.354" height="2.296"/>
			</g>
			<g>
				<rect x="307.537" y="289.444" style="fill:#C5F3FB;" width="2.377" height="8.717"/>
				<rect x="311.895" y="289.444" style="fill:#C5F3FB;" width="2.378" height="8.717"/>
				<rect x="316.253" y="289.444" style="fill:#C5F3FB;" width="2.378" height="8.717"/>
				<rect x="320.612" y="289.444" style="fill:#C5F3FB;" width="2.377" height="8.717"/>
				<rect x="324.971" y="289.444" style="fill:#C5F3FB;" width="2.377" height="8.717"/>
				<rect x="329.33" y="289.444" style="fill:#C5F3FB;" width="2.377" height="8.717"/>
				<rect x="333.688" y="289.444" style="fill:#C5F3FB;" width="2.377" height="8.717"/>
				<rect x="338.046" y="289.444" style="fill:#C5F3FB;" width="2.378" height="8.717"/>
			</g>
			<g>
				<rect x="307.537" y="300.274" style="fill:#C5F3FB;" width="2.377" height="8.717"/>
				<rect x="311.895" y="300.274" style="fill:#C5F3FB;" width="2.378" height="8.717"/>
				<rect x="316.253" y="300.274" style="fill:#C5F3FB;" width="2.378" height="8.717"/>
				<rect x="320.612" y="300.274" style="fill:#C5F3FB;" width="2.377" height="8.717"/>
				<rect x="324.971" y="300.274" style="fill:#C5F3FB;" width="2.377" height="8.717"/>
				<rect x="329.33" y="300.274" style="fill:#C5F3FB;" width="2.377" height="8.717"/>
				<rect x="333.688" y="300.274" style="fill:#C5F3FB;" width="2.377" height="8.717"/>
				<rect x="338.046" y="300.274" style="fill:#C5F3FB;" width="2.378" height="8.717"/>
			</g>
			<g>
				<rect x="307.537" y="311.104" style="fill:#C5F3FB;" width="2.377" height="8.718"/>
				<rect x="311.895" y="311.104" style="fill:#C5F3FB;" width="2.378" height="8.718"/>
				<rect x="316.253" y="311.104" style="fill:#C5F3FB;" width="2.378" height="8.718"/>
				<rect x="320.612" y="311.104" style="fill:#C5F3FB;" width="2.377" height="8.718"/>
				<rect x="324.971" y="311.104" style="fill:#C5F3FB;" width="2.377" height="8.718"/>
				<rect x="329.33" y="311.104" style="fill:#C5F3FB;" width="2.377" height="8.718"/>
				<rect x="333.688" y="311.104" style="fill:#C5F3FB;" width="2.377" height="8.718"/>
				<rect x="338.046" y="311.104" style="fill:#C5F3FB;" width="2.378" height="8.718"/>
			</g>
			<g>
				<rect x="307.477" y="321.935" style="fill:#C5F3FB;" width="2.378" height="8.717"/>
				<rect x="311.836" y="321.935" style="fill:#C5F3FB;" width="2.378" height="8.717"/>
				<rect x="316.195" y="321.935" style="fill:#C5F3FB;" width="2.377" height="8.717"/>
				<rect x="320.553" y="321.935" style="fill:#C5F3FB;" width="2.377" height="8.717"/>
				<rect x="324.912" y="321.935" style="fill:#C5F3FB;" width="2.378" height="8.717"/>
				<rect x="329.27" y="321.935" style="fill:#C5F3FB;" width="2.378" height="8.717"/>
				<rect x="333.629" y="321.935" style="fill:#C5F3FB;" width="2.377" height="8.717"/>
				<rect x="337.987" y="321.935" style="fill:#C5F3FB;" width="2.377" height="8.717"/>
			</g>
			<rect x="322.183" y="410.342" style="fill:#C5F3FB;" width="7.013" height="18.434"/>
		</g>
		<g>
			<rect x="294.673" y="423.877" style="fill:#CBCCCE;" width="173.579" height="6.613"/>
			<rect x="285.004" y="426.25" style="fill:#AAAAAA;" width="192.916" height="5.195"/>
		</g>
	</g>
</g>
<g id="DESIGNED_BY_FREEPIK">
	<g>
		<g id="XMLID_319_">
			<g id="XMLID_338_">
				<path id="XMLID_346_" style="fill:#ACB7C6;" d="M260.104,465.466c-0.432,0.442-0.803,0.931-1.108,1.452l-0.465-0.24
					c-0.067-0.298-0.35-0.503-0.659-0.467c-0.331,0.039-0.567,0.339-0.529,0.67c0.038,0.331,0.339,0.568,0.669,0.529
					c0.065-0.008,0.127-0.026,0.184-0.053l0.452,0.234c-0.251,0.554-0.433,1.139-0.54,1.744l0.747,0.131
					c0.229-1.306,0.85-2.506,1.792-3.472L260.104,465.466z"/>
				<path id="XMLID_345_" style="fill:#ACB7C6;" d="M265.592,463.163c-0.171,0-0.341,0.007-0.51,0.018l-0.074-0.626
					c0.188-0.149,0.296-0.39,0.266-0.645c-0.046-0.394-0.402-0.675-0.795-0.629c-0.394,0.047-0.674,0.402-0.628,0.796
					c0.03,0.254,0.189,0.461,0.404,0.564l0.073,0.624c-0.713,0.116-1.402,0.332-2.06,0.647l0.327,0.684
					c0.935-0.447,1.942-0.673,2.996-0.673c0.497,0,0.993,0.053,1.475,0.157l0.16-0.741
					C266.692,463.223,266.142,463.163,265.592,463.163z"/>
				<path id="XMLID_344_" style="fill:#ACB7C6;" d="M272.194,465.711c0.331-0.041,0.567-0.342,0.526-0.673
					c-0.04-0.331-0.341-0.565-0.672-0.525c-0.31,0.038-0.535,0.304-0.53,0.608l-0.416,0.363c-0.418-0.43-0.89-0.813-1.408-1.139
					l-0.404,0.641c1.134,0.715,2.021,1.727,2.564,2.926l0.69-0.313c-0.251-0.555-0.567-1.072-0.942-1.545l0.402-0.352
					C272.065,465.716,272.129,465.719,272.194,465.711z"/>
				<path id="XMLID_343_" style="fill:#ACB7C6;" d="M265.044,473.372c-0.386,0.023-0.775,0.034-1.157,0.034
					c-0.88,0-1.733-0.061-2.479-0.179c-0.391-0.063-0.846-0.155-1.27-0.292c1.047,1.86,3.069,3.125,5.389,3.125
					c2.855,0,5.262-1.916,5.949-4.504c-0.682,0.449-1.505,0.825-2.458,1.123C267.838,473.047,266.463,473.286,265.044,473.372z"/>
				<path id="XMLID_339_" style="fill:#ACB7C6;" d="M265.592,464.68c-3.352,0-6.08,2.666-6.08,5.943
					c0,0.426,0.046,0.849,0.137,1.262c0.674,0.482,2.706,0.89,5.348,0.73c2.88-0.173,5.297-0.957,6.672-2.158
					c-0.005-0.195-0.021-0.391-0.045-0.582C271.244,466.913,268.65,464.68,265.592,464.68z M263.432,471.194
					c-1.02,0-1.85-0.83-1.85-1.85c0-1.021,0.83-1.85,1.85-1.85c1.02,0,1.85,0.829,1.85,1.85
					C265.282,470.364,264.452,471.194,263.432,471.194z M268.17,470.286c-0.75,0-1.36-0.61-1.36-1.36s0.61-1.36,1.36-1.36
					s1.36,0.61,1.36,1.36S268.92,470.286,268.17,470.286z"/>
			</g>
			<path id="XMLID_336_" style="fill:#ACB7C6;" d="M281.595,466.547c-0.295-0.116-0.806-0.309-1.382-0.237
				c-0.551,0.068-0.844,0.341-0.844,1.007v0.865h2.228v1.718h-2.228v5.454h-1.932v-5.454h-1.339v-1.718h1.339v-0.888
				c0-1.681,0.895-2.783,2.568-2.783c0.642,0,1.157,0.122,1.59,0.309V466.547z"/>
			<path id="XMLID_334_" style="fill:#ACB7C6;" d="M286.298,469.879c-0.177-0.03-0.358-0.047-0.526-0.047
				c-0.895,0-1.51,0.548-1.51,1.614v3.907h-1.932v-7.172h1.872v0.785c0.451-0.674,1.14-0.978,2.021-0.978
				c0.415,0,0.848,0.128,1.094,0.337L286.298,469.879z"/>
			<path id="XMLID_331_" style="fill:#ACB7C6;" d="M293.965,471.757c0,0.222-0.015,0.488-0.037,0.651h-5.085
				c0.207,1.036,0.933,1.487,1.843,1.487c0.622,0,1.295-0.251,1.814-0.688l1.133,1.243c-0.814,0.747-1.851,1.088-3.057,1.088
				c-2.198,0-3.723-1.495-3.723-3.753c0-2.257,1.48-3.797,3.627-3.797C292.544,467.989,293.957,469.522,293.965,471.757z
				 M288.851,471.091h3.175c-0.178-0.918-0.732-1.436-1.562-1.436C289.554,469.654,289.021,470.202,288.851,471.091z"/>
			<path id="XMLID_328_" style="fill:#ACB7C6;" d="M301.619,471.757c0,0.222-0.015,0.488-0.037,0.651h-5.085
				c0.207,1.036,0.933,1.487,1.843,1.487c0.622,0,1.295-0.251,1.813-0.688l1.132,1.243c-0.814,0.747-1.85,1.088-3.057,1.088
				c-2.198,0-3.723-1.495-3.723-3.753c0-2.257,1.48-3.797,3.627-3.797C300.197,467.989,301.611,469.522,301.619,471.757z
				 M296.504,471.091h3.175c-0.178-0.918-0.733-1.436-1.561-1.436C297.207,469.654,296.674,470.202,296.504,471.091z"/>
			<path id="XMLID_325_" style="fill:#ACB7C6;" d="M309.964,471.765c0,2.153-1.495,3.775-3.472,3.775
				c-0.962,0-1.643-0.378-2.109-0.933v3.708h-1.924v-10.133h1.887v0.792c0.466-0.585,1.155-0.984,2.139-0.984
				C308.469,467.989,309.964,469.61,309.964,471.765z M304.287,471.765c0,1.132,0.748,1.976,1.843,1.976
				c1.14,0,1.85-0.881,1.85-1.976c0-1.096-0.71-1.977-1.85-1.977C305.035,469.788,304.287,470.632,304.287,471.765z"/>
			<path id="XMLID_322_" style="fill:#ACB7C6;" d="M313.067,465.836c0,0.695-0.541,1.229-1.236,1.229
				c-0.696,0-1.229-0.533-1.229-1.229c0-0.696,0.533-1.244,1.229-1.244C312.527,464.592,313.067,465.14,313.067,465.836z
				 M312.809,475.353h-1.932v-7.172h1.932V475.353z"/>
			<path id="XMLID_320_" style="fill:#ACB7C6;" d="M316.032,470.735l2.702-2.554h2.368l-3.478,3.375l3.501,3.797h-2.376
				l-2.717-2.901v2.901H314.1v-10.657h1.932V470.735z"/>
		</g>
		<g>
			<path style="fill:#ACB7C6;" d="M184.412,475.289v-1.055c-0.527,0.718-1.391,1.23-2.387,1.23c-1.846,0-3.149-1.406-3.149-3.706
				c0-2.256,1.289-3.721,3.149-3.721c0.952,0,1.816,0.469,2.387,1.245v-3.765h1.099v9.771H184.412z M184.412,473.37v-3.208
				c-0.395-0.615-1.245-1.143-2.123-1.143c-1.421,0-2.271,1.172-2.271,2.739c0,1.567,0.85,2.725,2.271,2.725
				C183.167,474.483,184.017,473.985,184.412,473.37z"/>
			<path style="fill:#ACB7C6;" d="M186.932,471.744c0-2.051,1.464-3.706,3.485-3.706c2.139,0,3.398,1.67,3.398,3.794v0.278h-5.727
				c0.088,1.333,1.026,2.446,2.549,2.446c0.805,0,1.626-0.322,2.182-0.894l0.527,0.718c-0.703,0.703-1.655,1.084-2.813,1.084
				C188.44,475.465,186.932,473.956,186.932,471.744z M190.403,468.946c-1.509,0-2.256,1.274-2.314,2.358h4.644
				C192.717,470.25,192.014,468.946,190.403,468.946z"/>
			<path style="fill:#ACB7C6;" d="M194.607,474.352l0.571-0.791c0.469,0.542,1.362,1.011,2.329,1.011c1.084,0,1.67-0.513,1.67-1.216
				c0-1.714-4.38-0.659-4.38-3.281c0-1.099,0.952-2.036,2.637-2.036c1.201,0,2.051,0.454,2.622,1.025l-0.513,0.762
				c-0.425-0.513-1.201-0.894-2.109-0.894c-0.967,0-1.567,0.483-1.567,1.113c0,1.553,4.379,0.527,4.379,3.281
				c0,1.186-0.952,2.139-2.783,2.139C196.306,475.465,195.325,475.113,194.607,474.352z"/>
			<path style="fill:#ACB7C6;" d="M201.477,466.471c0-0.41,0.337-0.747,0.732-0.747c0.41,0,0.747,0.337,0.747,0.747
				c0,0.41-0.337,0.732-0.747,0.732C201.814,467.203,201.477,466.881,201.477,466.471z M201.667,475.289v-7.075h1.099v7.075H201.667
				z"/>
			<path style="fill:#ACB7C6;" d="M204.582,477.105l0.556-0.82c0.586,0.703,1.289,0.967,2.3,0.967c1.172,0,2.27-0.571,2.27-2.124
				v-1.011c-0.513,0.718-1.377,1.26-2.373,1.26c-1.846,0-3.149-1.377-3.149-3.662c0-2.271,1.289-3.677,3.149-3.677
				c0.952,0,1.802,0.469,2.373,1.245v-1.069h1.099v6.87c0,2.344-1.641,3.076-3.369,3.076
				C206.237,478.16,205.417,477.926,204.582,477.105z M209.708,473.253v-3.091c-0.381-0.615-1.23-1.143-2.109-1.143
				c-1.421,0-2.27,1.128-2.27,2.695c0,1.553,0.849,2.695,2.27,2.695C208.478,474.41,209.328,473.868,209.708,473.253z"/>
			<path style="fill:#ACB7C6;" d="M217.413,475.289v-4.629c0-1.245-0.629-1.641-1.582-1.641c-0.865,0-1.685,0.527-2.095,1.099v5.171
				h-1.099v-7.075h1.099v1.025c0.498-0.586,1.464-1.201,2.519-1.201c1.479,0,2.256,0.747,2.256,2.285v4.966H217.413z"/>
			<path style="fill:#ACB7C6;" d="M219.932,471.744c0-2.051,1.465-3.706,3.486-3.706c2.139,0,3.398,1.67,3.398,3.794v0.278h-5.727
				c0.087,1.333,1.025,2.446,2.548,2.446c0.806,0,1.626-0.322,2.183-0.894l0.527,0.718c-0.703,0.703-1.655,1.084-2.813,1.084
				C221.441,475.465,219.932,473.956,219.932,471.744z M223.404,468.946c-1.509,0-2.256,1.274-2.314,2.358h4.643
				C225.718,470.25,225.015,468.946,223.404,468.946z"/>
			<path style="fill:#ACB7C6;" d="M233.35,475.289v-1.055c-0.527,0.718-1.392,1.23-2.388,1.23c-1.845,0-3.149-1.406-3.149-3.706
				c0-2.256,1.289-3.721,3.149-3.721c0.953,0,1.817,0.469,2.388,1.245v-3.765h1.099v9.771H233.35z M233.35,473.37v-3.208
				c-0.396-0.615-1.245-1.143-2.124-1.143c-1.421,0-2.271,1.172-2.271,2.739c0,1.567,0.85,2.725,2.271,2.725
				C232.105,474.483,232.954,473.985,233.35,473.37z"/>
			<path style="fill:#ACB7C6;" d="M239.692,475.289v-9.771h1.099v3.765c0.571-0.776,1.421-1.245,2.388-1.245
				c1.846,0,3.149,1.465,3.149,3.721c0,2.3-1.304,3.706-3.149,3.706c-0.996,0-1.86-0.513-2.388-1.23v1.055H239.692z M242.9,474.483
				c1.436,0,2.285-1.157,2.285-2.725c0-1.567-0.85-2.739-2.285-2.739c-0.864,0-1.729,0.527-2.109,1.143v3.208
				C241.171,473.985,242.036,474.483,242.9,474.483z"/>
			<path style="fill:#ACB7C6;" d="M247.528,477.061c0.161,0.073,0.425,0.117,0.601,0.117c0.483,0,0.805-0.161,1.055-0.747
				l0.469-1.069l-2.959-7.148h1.187l2.358,5.801l2.344-5.801h1.201l-3.545,8.511c-0.424,1.025-1.143,1.421-2.08,1.436
				c-0.234,0-0.601-0.044-0.805-0.103L247.528,477.061z"/>
		</g>
	</g>
</g>
</svg>
